G04*
G04 #@! TF.GenerationSoftware,Altium Limited,Altium Designer,24.4.1 (13)*
G04*
G04 Layer_Physical_Order=1*
G04 Layer_Color=255*
%FSLAX25Y25*%
%MOIN*%
G70*
G04*
G04 #@! TF.SameCoordinates,3EEB7BDD-B038-4D3B-A9E7-BEF9E242D85C*
G04*
G04*
G04 #@! TF.FilePolarity,Positive*
G04*
G01*
G75*
%ADD12C,0.01000*%
%ADD14R,0.03543X0.02362*%
%ADD15R,0.03000X0.03000*%
G04:AMPARAMS|DCode=16|XSize=39.37mil|YSize=118.11mil|CornerRadius=4.92mil|HoleSize=0mil|Usage=FLASHONLY|Rotation=90.000|XOffset=0mil|YOffset=0mil|HoleType=Round|Shape=RoundedRectangle|*
%AMROUNDEDRECTD16*
21,1,0.03937,0.10827,0,0,90.0*
21,1,0.02953,0.11811,0,0,90.0*
1,1,0.00984,0.05413,0.01476*
1,1,0.00984,0.05413,-0.01476*
1,1,0.00984,-0.05413,-0.01476*
1,1,0.00984,-0.05413,0.01476*
%
%ADD16ROUNDEDRECTD16*%
%ADD17O,0.08661X0.02362*%
%ADD18R,0.03150X0.03150*%
%ADD24C,0.01968*%
%ADD25C,0.02756*%
%ADD26C,0.02362*%
G36*
X90554Y52766D02*
X90853Y52774D01*
X91133Y52800D01*
X91393Y52842D01*
X91633Y52901D01*
X91854Y52978D01*
X92056Y53071D01*
X92238Y53181D01*
X92400Y53308D01*
X92542Y53453D01*
X92666Y53614D01*
Y49969D01*
X92545Y50126D01*
X92404Y50267D01*
X92243Y50391D01*
X92062Y50499D01*
X91861Y50590D01*
X91640Y50665D01*
X91398Y50723D01*
X91137Y50764D01*
X90855Y50789D01*
X90554Y50797D01*
Y52766D01*
D02*
G37*
D12*
X88435Y8219D02*
X98376D01*
X88386Y8268D02*
X88435Y8219D01*
X98376D02*
X98425Y8169D01*
X93512Y17606D02*
X94980Y19075D01*
X87388Y11193D02*
X89671D01*
X94980Y19075D02*
X98425D01*
X93512Y15034D02*
Y17606D01*
X89671Y11193D02*
X93512Y15034D01*
X87795Y13614D02*
X88650D01*
X88681Y13583D01*
X78884Y25405D02*
X79470Y24819D01*
X84926Y16484D02*
Y21020D01*
X78884Y25405D02*
Y26569D01*
Y22233D02*
X79470Y22819D01*
X77884Y20069D02*
X78884Y21069D01*
X77884Y27569D02*
X78884Y26569D01*
X82925Y15655D02*
X87388Y11193D01*
X84926Y16484D02*
X87795Y13614D01*
X81127Y24819D02*
X84926Y21020D01*
X82925Y15655D02*
Y20192D01*
X80299Y22819D02*
X82925Y20192D01*
X79470Y22819D02*
X80299D01*
X79470Y24819D02*
X81127D01*
X78884Y21069D02*
Y22233D01*
X73389Y26024D02*
X74594Y24819D01*
X76298D01*
Y22819D02*
X76884Y22233D01*
X73094Y21024D02*
X74889Y22819D01*
X76884Y26569D02*
X77884Y27569D01*
X76884Y25405D02*
Y26569D01*
Y21069D02*
X77884Y20069D01*
X70177Y26024D02*
X73389D01*
X76884Y21069D02*
Y22233D01*
X74889Y22819D02*
X76298D01*
X70177Y21024D02*
X73094D01*
X76298Y24819D02*
X76884Y25405D01*
X55910Y26284D02*
X56819Y27193D01*
X51540Y26284D02*
X55910D01*
X56819Y27193D02*
Y33634D01*
X51279Y26024D02*
X51540Y26284D01*
X47260Y37500D02*
X52953D01*
X56819Y33634D01*
X47233Y37472D02*
X47260Y37500D01*
X44280Y37472D02*
X47233D01*
X41732Y40020D02*
X44280Y37472D01*
X37795Y40020D02*
X41732D01*
X51279Y21024D02*
Y26024D01*
X49743Y31024D02*
X51279D01*
X49114Y31653D02*
X49743Y31024D01*
X49114Y31653D02*
Y34449D01*
X86884Y23819D02*
X86884Y23819D01*
X89665D01*
X70177Y16024D02*
X70276Y15925D01*
Y12008D02*
Y15925D01*
X62205Y13484D02*
Y26201D01*
X67028Y31024D01*
X67323Y8366D02*
X78937D01*
X62205Y13484D02*
X67323Y8366D01*
X59252Y38091D02*
X63484D01*
X63583Y37992D01*
X78888Y38730D02*
X78937Y38681D01*
X73966Y38730D02*
X78888D01*
X73917Y38780D02*
X73966Y38730D01*
X69670Y31024D02*
X70177D01*
X67028D02*
X69670D01*
X78565Y32776D02*
X78937D01*
X77884Y27569D02*
Y32094D01*
X78565Y32776D01*
X77884Y20069D02*
X78937Y19016D01*
Y14272D02*
Y19016D01*
X69488Y37992D02*
X69882Y38386D01*
X41240Y30020D02*
X41732D01*
X37795D02*
X41240D01*
X42709Y28551D01*
Y24401D02*
Y28551D01*
X45535Y18619D02*
Y21575D01*
X48130Y16024D02*
X51279D01*
X42709Y24401D02*
X45535Y21575D01*
Y18619D02*
X48130Y16024D01*
D14*
X78937Y8366D02*
D03*
Y14272D02*
D03*
Y32776D02*
D03*
Y38681D02*
D03*
D15*
X77884Y20069D02*
D03*
Y27569D02*
D03*
X86884Y23819D02*
D03*
D16*
X98425Y51791D02*
D03*
Y8169D02*
D03*
Y19075D02*
D03*
Y29980D02*
D03*
Y40886D02*
D03*
X37795Y20020D02*
D03*
Y30020D02*
D03*
Y40020D02*
D03*
D17*
X70177Y16024D02*
D03*
Y21024D02*
D03*
Y26024D02*
D03*
Y31024D02*
D03*
X51279Y16024D02*
D03*
Y21024D02*
D03*
Y26024D02*
D03*
Y31024D02*
D03*
D18*
X69488Y37992D02*
D03*
X63583D02*
D03*
D24*
X69488Y31205D02*
Y37992D01*
Y31205D02*
X69670Y31024D01*
X87402Y51772D02*
X87411Y51781D01*
X98415D02*
X98425Y51791D01*
X87411Y51781D02*
X98415D01*
D25*
X69291Y38189D02*
Y40610D01*
X48130Y42028D02*
X67874D01*
X69291Y38189D02*
X69488Y37992D01*
X67874Y42028D02*
X69291Y40610D01*
X46161Y40059D02*
X48130Y42028D01*
D26*
X88681Y8268D02*
D03*
Y13583D02*
D03*
X49114Y34449D02*
D03*
X89665Y23819D02*
D03*
X70276Y12008D02*
D03*
X59252Y38091D02*
D03*
X73917Y38780D02*
D03*
X46161Y40059D02*
D03*
X87402Y51772D02*
D03*
M02*
